<svg id="Layer_1" data-name="Layer 1" xmlns="http://www.w3.org/2000/svg" viewBox="0 0 221.65 194.88"><title>Artboard 6</title><path d="M81.23,108.81A19.25,19.25,0,0,1,76,128a17.73,17.73,0,0,1-6.34,3.78C55.11,136.61,41,123.5,28.26,119.38,4,111.52-3.11,134.4,6.77,140.79,30.91,152.66,57,165.45,81.14,177.32c19.2,9.44,40.63,19.13,61.23,13.38,13.62-3.81,24.77-14.12,31.93-26.31s10.7-26.17,12.93-40.13l0-.14a91.84,91.84,0,0,1,12-33c5-8.28,10-16.53,14.44-23.77,2.08-3.36,4.19-6.81,5.07-10.67,1.33-5.81-.61-12.89-8.34-14a12.92,12.92,0,0,0-7.22,1.12c-5.91,2.76-9.35,8.43-12.59,13.88-5,8.4-8.59,15.57-12.44,22.94a7.69,7.69,0,0,1-9.89,3.53l-.13-.06a7.74,7.74,0,0,1-4.4-9.1c4-14.73,8.55-31.24,11.77-43.3,1-3.82,2.05-7.73,1.78-11.68-.41-6-4.31-12.16-12-11a12.89,12.89,0,0,0-6.6,3.16c-4.86,4.34-6.52,10.76-8,16.91-2.62,10.59-7,26.31-10.87,40.46A6.13,6.13,0,0,1,132.73,74l-.1,0a6.17,6.17,0,0,1-5-6q-.15-22.65-.32-45.31c0-4-.06-8-1.37-11.74-2-5.62-7.38-10.58-14.51-7.41a12.76,12.76,0,0,0-5.52,4.79c-3.54,5.48-3.44,12.11-3.27,18.45l1,39.76a4.34,4.34,0,0,1-4,4.44h-.07a4.46,4.46,0,0,1-4.48-2.64L76.52,26.11c-1.6-3.62-3.24-7.32-5.93-10.23-4-4.38-11-6.78-16.26-1a12.79,12.79,0,0,0-3.16,6.59c-1.07,6.43,1.66,12.48,4.32,18.23,4.35,9.38,10.1,24.61,15.9,38.21a154.54,154.54,0,0,1,7.17,20.92Z" fill="none" stroke="#4d4d50" stroke-linecap="round" stroke-linejoin="round" stroke-width="4.92"/><path d="M162.1,146c-11.16,10.18-24.75,18.24-39.7,20.43-8.14,1.19-16.44.61-24.64-.14q-10.86-1-21.68-2.38l9.4,4.63c15.1,7.42,29.82,14.09,43.93,14.09a37.83,37.83,0,0,0,10.32-1.37c10.09-2.82,19.6-10.77,26.09-21.81,4.43-7.54,7.7-16.61,10.13-28.18A147.18,147.18,0,0,1,162.1,146Z" fill="#febe10"/></svg>