<svg id="Layer_1" data-name="Layer 1" xmlns="http://www.w3.org/2000/svg" viewBox="0 0 134.3 230.52"><title>Artboard 4</title><line x1="17.77" y1="52.45" x2="80.13" y2="88.45" fill="none" stroke="#4d4d50" stroke-linecap="round" stroke-linejoin="round" stroke-width="4.92"/><path d="M105.85,72.63,80.13,88.45V228.06l25.72-15.82V72.66L32.42,30.26A13.56,13.56,0,0,0,17,31.57L5.74,40.92a9.05,9.05,0,0,0-3.28,7V174.36a15.34,15.34,0,0,0,7.67,13.29l70,40.41" fill="none" stroke="#4d4d50" stroke-linecap="round" stroke-linejoin="round" stroke-width="4.92"/><path d="M90,94V210.46l6-3.72V90.23Z" fill="#febe10"/><path d="M106.12,202.08l25.72-15.83V46.67L58.4,4.27A13.56,13.56,0,0,0,43,5.58L29.82,16.83" fill="none" stroke="#4d4d50" stroke-linecap="round" stroke-linejoin="round" stroke-width="4.92"/><line x1="131.84" y1="46.64" x2="106.12" y2="62.47" fill="none" stroke="#4d4d50" stroke-linecap="round" stroke-linejoin="round" stroke-width="4.92"/><line x1="40.16" y1="80.58" x2="28.48" y2="102.26" fill="none" stroke="#4d4d50" stroke-linecap="round" stroke-linejoin="round" stroke-width="4.92"/><line x1="40.16" y1="80.58" x2="50.98" y2="111.77" fill="none" stroke="#4d4d50" stroke-linecap="round" stroke-linejoin="round" stroke-width="4.92"/><line x1="32.93" y1="94" x2="47.39" y2="102.35" fill="none" stroke="#4d4d50" stroke-linecap="round" stroke-linejoin="round" stroke-width="4.92"/><line x1="33.98" y1="116.06" x2="33.98" y2="144.47" fill="none" stroke="#4d4d50" stroke-linecap="round" stroke-linejoin="round" stroke-width="4.92"/><path d="M34,144.47l5.25,3c3.93,2.26,7.11.92,7.11-3h0c0-3.92-3.18-8.94-7.11-11.2l-5.25-3" fill="none" stroke="#4d4d50" stroke-linecap="round" stroke-linejoin="round" stroke-width="4.92"/><path d="M39.23,133.3c3.93,2.26,7.11.92,7.11-3h0c0-3.93-3.18-8.94-7.11-11.21l-5.25-3" fill="none" stroke="#4d4d50" stroke-linecap="round" stroke-linejoin="round" stroke-width="4.92"/><path d="M47.44,183.53v4.69c0,2.35-1.91,3.16-4.26,1.8l-6-3.46c-2.38-1.37-4.31-4.42-4.31-6.8V160c0-2.38,1.93-3.2,4.31-1.82l6,3.46c2.35,1.36,4.26,4.37,4.26,6.73v5.45" fill="none" stroke="#4d4d50" stroke-linecap="round" stroke-linejoin="round" stroke-width="4.92"/><line x1="116.86" y1="55.86" x2="47.39" y2="17.8" fill="none" stroke="#4d4d50" stroke-linecap="round" stroke-linejoin="round" stroke-width="4.92"/></svg>