<svg id="Layer_1" data-name="Layer 1" xmlns="http://www.w3.org/2000/svg" viewBox="0 0 151.28 221.23"><title>Artboard 1</title><path d="M145.33,117.47,113.91,86.05a15.5,15.5,0,0,0-16.2-3.62,65.72,65.72,0,0,1-44.27,0,15.48,15.48,0,0,0-16.19,3.62L6.17,117.12c-4.6,4.6-5.07,12.16-.6,16.9a11.88,11.88,0,0,0,17.06.26L43.3,113.62v28.06L32.2,201a15.55,15.55,0,0,0,30.31,6.64l9.44-47a3.7,3.7,0,0,1,3.63-3h0a3.71,3.71,0,0,1,3.63,3l9.44,47A15.55,15.55,0,0,0,119,201l-11.1-59.31V113.62l20.31,20.31c4.6,4.6,12.16,5.07,16.9.61A11.88,11.88,0,0,0,145.33,117.47Z" fill="none" stroke="#4d4d50" stroke-linecap="round" stroke-linejoin="round" stroke-width="4.92"/><path d="M102.82,28.76a30.45,30.45,0,0,1,2.54,7.37,30.83,30.83,0,0,1,.61,6.12,30.34,30.34,0,0,1-60.67,0,30.46,30.46,0,0,1,2.86-12.87" fill="none" stroke="#4d4d50" stroke-linecap="round" stroke-linejoin="round" stroke-width="4.92"/><polyline points="75.64 12.71 94.58 22.95 94.58 2.46 75.64 12.71" fill="none" stroke="#4d4d50" stroke-linecap="round" stroke-linejoin="round" stroke-width="4.92"/><polyline points="75.64 12.71 56.7 22.95 56.7 2.46 75.64 12.71" fill="none" stroke="#4d4d50" stroke-linecap="round" stroke-linejoin="round" stroke-width="4.92"/><path d="M98.18,205.15a5.76,5.76,0,0,0,5.38,3.78,5.7,5.7,0,0,0,5.68-6.38l-5.89-31.49L92,174.18Z" fill="#febe10"/><path d="M53.34,205.15A5.76,5.76,0,0,1,48,208.93a5.72,5.72,0,0,1-5.69-6.38l5.9-31.49,11.39,3.12Z" fill="#febe10"/></svg>