<svg id="Layer_1" data-name="Layer 1" xmlns="http://www.w3.org/2000/svg" viewBox="0 0 230.84 200.45"><title>Artboard 5</title><path d="M141.61,183.86l12.74,12.73a4.76,4.76,0,0,0,6.73,0l25.68-25.68a4.75,4.75,0,0,0,1.39-3.36V149.44l30.34-30.33,8-4.56a3.69,3.69,0,0,0,.79-5.82L222,103.45l-.06-.06-5.28-5.28a3.69,3.69,0,0,0-5.83.79l-4.55,8L176,137.25H157.86a4.76,4.76,0,0,0-3.36,1.4l-25.69,25.68a4.77,4.77,0,0,0,0,6.73l12.74,12.74Z" fill="none" stroke="#4d4d50" stroke-linecap="round" stroke-linejoin="round" stroke-width="4.92"/><path d="M172.78,166,158,180.71,144.7,167.39l14.76-14.76h0A13.32,13.32,0,0,0,172,165.9Z" fill="#febe10"/><path d="M157,126.36l2.46-17.92h1.21A11.41,11.41,0,0,0,172.11,97h0A11.41,11.41,0,0,0,160.7,85.62H30A11.41,11.41,0,0,0,18.59,97h0A11.41,11.41,0,0,0,30,108.44h1.22L42.39,190a9.27,9.27,0,0,0,9.17,8h87.59" fill="none" stroke="#4d4d50" stroke-linecap="round" stroke-linejoin="round" stroke-width="4.92"/><line x1="159.49" y1="108.44" x2="95.35" y2="108.44" fill="none" stroke="#4d4d50" stroke-linecap="round" stroke-linejoin="round" stroke-width="4.92"/><path d="M172.11,97h0a16.21,16.21,0,0,0,15.77-19.71,94.61,94.61,0,0,0-185,0A16.21,16.21,0,0,0,18.59,97h0" fill="none" stroke="#4d4d50" stroke-linecap="round" stroke-linejoin="round" stroke-width="4.92"/><path d="M157.13,57.85a73.14,73.14,0,0,0-123.55,0" fill="none" stroke="#4d4d50" stroke-linecap="round" stroke-linejoin="round" stroke-width="4.92"/></svg>