<svg id="Layer_1" data-name="Layer 1" xmlns="http://www.w3.org/2000/svg" viewBox="0 0 151.28 231.45"><title>Artboard 3</title><path d="M88.39,25a30.35,30.35,0,1,1-12.81-2.83" fill="none" stroke="#4d4d50" stroke-linecap="round" stroke-linejoin="round" stroke-width="4.92"/><path d="M145.33,127.69,113.91,96.27a15.52,15.52,0,0,0-16.2-3.62,65.72,65.72,0,0,1-44.27,0,15.5,15.5,0,0,0-16.19,3.62L6.17,127.34c-4.6,4.6-5.07,12.16-.6,16.9a11.88,11.88,0,0,0,17.06.27L43.3,123.84V151.9L32.2,211.22a15.55,15.55,0,0,0,30.31,6.63l9.44-47a3.7,3.7,0,0,1,3.63-3h0a3.71,3.71,0,0,1,3.63,3l9.44,47A15.55,15.55,0,0,0,119,211.22l-11.1-59.32V123.84l20.31,20.31c4.6,4.6,12.16,5.07,16.9.61A11.88,11.88,0,0,0,145.33,127.69Z" fill="none" stroke="#4d4d50" stroke-linecap="round" stroke-linejoin="round" stroke-width="4.92"/><path d="M76.22,22.12a12.64,12.64,0,0,0,11.29-5.51c2.31-3.73,1.89-9.12-1.39-12a8.56,8.56,0,0,0-8.3-1.68A6.88,6.88,0,0,0,73.1,8.33c-.27,2.52,1.61,5.22,4.13,5.43" fill="none" stroke="#4d4d50" stroke-linecap="round" stroke-linejoin="round" stroke-width="4.92"/><path d="M98.06,215.14a5.76,5.76,0,0,0,5.38,3.78,5.73,5.73,0,0,0,5.68-6.38L103.23,181l-11.39,3.12Z" fill="#febe10"/><path d="M53.22,215.14a5.76,5.76,0,0,1-5.38,3.78,5.73,5.73,0,0,1-5.69-6.38l5.9-31.5,11.39,3.12Z" fill="#febe10"/></svg>